<?xml version="1.0" encoding="utf-8"?>
<!-- Generator: Adobe Illustrator 25.3.1, SVG Export Plug-In . SVG Version: 6.00 Build 0)  -->
<svg version="1.1" id="Layer_1" xmlns="http://www.w3.org/2000/svg" xmlns:xlink="http://www.w3.org/1999/xlink" x="0px" y="0px"
	 viewBox="0 0 640 640" style="enable-background:new 0 0 640 640;" xml:space="preserve">
<g id="XMLID_380_">
	<g>
		<g>
			<path d="M404.5,320.2c0,18.3,14.8,33.2,33.2,33.2c18.3,0,33.2-14.8,33.2-33.2c0-18.3-14.8-33.2-33.2-33.2
				C419.4,287,404.5,301.9,404.5,320.2z"/>
			<path d="M237.6,320c0-18.3-14.8-33.2-33.2-33.2s-33.2,14.8-33.2,33.2c0,18.3,14.8,33.2,33.2,33.2
				C222.7,353.2,237.6,338.3,237.6,320z"/>
			<path d="M350.9,320.1c-0.1,48.7,38.8,88.4,86.7,88.4c47.9,0.1,87-39.5,87-88.1s-38.8-88.4-86.7-88.4
				C389.9,231.8,350.9,271.5,350.9,320.1z M494.3,320.3c0,31.1-25.4,56.5-56.7,56.4c-31.1,0-56.5-25.4-56.4-56.7
				s25.4-56.5,56.7-56.4C469,263.8,494.3,289.2,494.3,320.3z"/>
			<path d="M117.7,320.1c-0.1,48.7,38.8,88.4,86.7,88.4s87-39.5,87-88.1c0.1-48.7-38.8-88.4-86.7-88.4
				C156.8,231.9,117.9,271.5,117.7,320.1z M261.1,320.3c0,31.1-25.4,56.5-56.7,56.4c-31.2-0.1-56.5-25.4-56.4-56.7
				c0-31.1,25.4-56.5,56.7-56.4S261.1,289.2,261.1,320.3z"/>
			<path d="M639.7,432.2l0.3-224.5c0-32.5-26.3-59-58.9-59l-521.8-0.6c-32.5,0-59,26.3-59,58.9L0,431.4c0,32.5,26.3,59,58.9,59
				l521.8,0.6C613.1,491,639.5,464.6,639.7,432.2z M537.4,320.4c-0.1,54.9-44.9,99.6-99.8,99.6c-54.9-0.1-99.6-44.9-99.6-99.8
				s44.9-99.6,99.8-99.6S537.5,265.4,537.4,320.4z M104.7,319.7c0.1-54.9,44.9-99.6,99.8-99.6S304,265.1,304,320
				s-44.9,99.6-99.8,99.6S104.7,374.7,104.7,319.7z"/>
		</g>
	</g>
</g>
</svg>
