<?xml version="1.0" encoding="iso-8859-1"?>
<svg version="1.1"  xmlns="http://www.w3.org/2000/svg"
	 viewBox="0 0 297 297"  xml:space="preserve">
<g>
	<path d="M273.182,0H119.276c-5.486,0-9.935,4.447-9.935,9.934v277.133c0,5.486,4.448,9.934,9.935,9.934h153.905
		c5.486,0,9.934-4.447,9.934-9.934V9.934C283.115,4.447,278.668,0,273.182,0z M263.247,277.131H129.211V19.869h134.036V277.131z"/>
	<path d="M196.229,127.08c22.764,0,41.282-18.523,41.282-41.291c0-22.768-18.519-41.291-41.282-41.291s-41.283,18.523-41.283,41.291
		C154.946,108.557,173.466,127.08,196.229,127.08z M196.229,64.367c11.808,0,21.414,9.609,21.414,21.422
		s-9.607,21.424-21.414,21.424c-11.808,0-21.414-9.611-21.414-21.424S184.422,64.367,196.229,64.367z"/>
	<path d="M196.229,268.18c31.404,0,56.954-25.555,56.954-56.969c0-31.412-25.55-56.967-56.954-56.967
		c-31.405,0-56.956,25.555-56.956,56.967C139.273,242.625,164.824,268.18,196.229,268.18z M196.229,174.113
		c20.448,0,37.086,16.643,37.086,37.098c0,20.457-16.638,37.1-37.086,37.1c-20.451,0-37.088-16.643-37.088-37.1
		C159.142,190.756,175.778,174.113,196.229,174.113z"/>
	<path d="M196.229,233.223c12.056,0,21.864-9.873,21.864-22.012c0-12.137-9.809-22.012-21.864-22.012
		c-12.058,0-21.866,9.875-21.866,22.012C174.363,223.35,184.172,233.223,196.229,233.223z M196.229,209.068
		c1.1,0,1.995,0.961,1.995,2.143c0,1.182-0.895,2.145-1.995,2.145c-1.102,0-1.998-0.963-1.998-2.145
		C194.231,210.029,195.128,209.068,196.229,209.068z"/>
	<path d="M49.427,93.629V51.311l27.154-9.326v18.328c-8.813,1.041-15.677,8.547-15.677,17.637c0,9.801,7.972,17.773,17.772,17.773
		s17.773-7.973,17.773-17.773V28.068c0-3.209-1.55-6.221-4.161-8.086c-2.613-1.863-5.964-2.352-8.999-1.311l-47.023,16.15
		c-4.013,1.379-6.708,5.154-6.708,9.396v31.769c-8.813,1.043-15.673,8.551-15.673,17.641c0,9.801,7.971,17.773,17.769,17.773
		C41.454,111.402,49.427,103.43,49.427,93.629z"/>
	<path d="M80.773,214.063v-42.318l13.96-4.795c5.19-1.781,7.951-7.434,6.169-12.621c-1.783-5.191-7.438-7.951-12.622-6.17
		l-20.668,7.098c-4.014,1.379-6.708,5.154-6.708,9.396v31.771c-8.811,1.043-15.673,8.549-15.673,17.639
		c0,9.801,7.972,17.773,17.771,17.773C72.802,231.836,80.773,223.863,80.773,214.063z"/>
</g>
</svg>
