<?xml version="1.0" encoding="utf-8"?>
<!-- Generator: Adobe Illustrator 25.3.1, SVG Export Plug-In . SVG Version: 6.00 Build 0)  -->
<svg version="1.1" id="Capa_1" xmlns="http://www.w3.org/2000/svg" xmlns:xlink="http://www.w3.org/1999/xlink" x="0px" y="0px"
	 viewBox="0 0 925.2 925.2" style="enable-background:new 0 0 925.2 925.2;" xml:space="preserve">
<g>
	<path d="M296.5,837v28.4h-56.1c-16.5,0-29.9,13.4-29.9,29.9s13.4,29.9,29.9,29.9h444.3c16.5,0,29.9-13.4,29.9-29.9
		s-13.4-29.9-29.9-29.9h-58.2V837H296.5z"/>
	<path d="M714.5,50c0-27.6-22.4-50-50-50h-404c-27.6,0-50,22.4-50,50v697c0,27.6,22.4,50,50,50h404c27.6,0,50-22.4,50-50V50z"/>
</g>
</svg>
