<?xml version="1.0" encoding="utf-8"?>
<!-- Generator: Adobe Illustrator 25.3.1, SVG Export Plug-In . SVG Version: 6.00 Build 0)  -->
<svg version="1.1" id="Capa_1" xmlns="http://www.w3.org/2000/svg" xmlns:xlink="http://www.w3.org/1999/xlink" x="0px" y="0px"
	 viewBox="0 0 640 640" style="enable-background:new 0 0 640 640;" xml:space="preserve">
<g>
	<path d="M640,63.3c0-25-20.2-45.2-45.2-45.2H45.2C20.2,18.1,0,38.3,0,63.3v513.4c0,25,20.2,45.2,45.2,45.2h549.5
		c25,0,45.2-20.2,45.2-45.2V63.3z M321.9,517.3c-109.4,0-198.4-89-198.4-198.4s89-198.4,198.4-198.4c109.4,0,198.4,89,198.4,198.4
		S431.3,517.3,321.9,517.3z"/>
	<path d="M321.9,148.6c-93.9,0-170.3,76.4-170.3,170.3S228,489.2,321.9,489.2c93.9,0,170.3-76.4,170.3-170.3
		S415.8,148.6,321.9,148.6z M321.9,409.5c-50,0-90.6-40.6-90.6-90.6s40.6-90.6,90.6-90.6s90.6,40.6,90.6,90.6
		S371.9,409.5,321.9,409.5z"/>
</g>
</svg>
