<?xml version="1.0" encoding="utf-8"?>
<!-- Generator: Adobe Illustrator 25.3.1, SVG Export Plug-In . SVG Version: 6.00 Build 0)  -->
<svg version="1.1" id="Capa_1" xmlns="http://www.w3.org/2000/svg" xmlns:xlink="http://www.w3.org/1999/xlink" x="0px" y="0px"
	 viewBox="0 0 640 640" style="enable-background:new 0 0 640 640;" xml:space="preserve">
<g>
	<g>
		<circle cx="320" cy="177.4" r="35.3"/>
		<path d="M320,372.6c-40.4,0-73.3,32.9-73.3,73.3c0,40.4,32.9,73.3,73.3,73.3s73.3-32.9,73.3-73.3
			C393.4,405.5,360.5,372.6,320,372.6z"/>
		<path d="M429.1,0H210.9C146,0,93.3,52.7,93.3,117.6v404.8C93.3,587.3,146,640,210.9,640h218.1c64.9,0,117.6-52.7,117.6-117.6
			V117.6C546.7,52.7,494,0,429.1,0z M320,100.4c42.5,0,77,34.5,77,77c0,42.5-34.5,77-77,77c-42.5,0-77-34.5-77-77
			C243,134.8,277.5,100.4,320,100.4z M320,588.8c-78.9,0-142.9-64-142.9-142.9S241.1,303,320,303c78.9,0,142.9,64,142.9,142.9
			S398.9,588.8,320,588.8z"/>
	</g>
</g>
</svg>
