<?xml version="1.0" encoding="utf-8"?>
<!-- Generator: Adobe Illustrator 25.3.1, SVG Export Plug-In . SVG Version: 6.00 Build 0)  -->
<svg version="1.1" id="图层_1" xmlns="http://www.w3.org/2000/svg" xmlns:xlink="http://www.w3.org/1999/xlink" x="0px" y="0px"
	 viewBox="0 0 640 640" style="enable-background:new 0 0 640 640;" xml:space="preserve">
<path d="M313.6,194.1c-8.5,8.5-21.3,8.5-27.7,0c-8.5-8.5-8.5-21.3,0-27.7l87.5-87.5c51.2-51.2,136.5-51.2,187.7,0
	s51.2,134.4,0,187.7c0,0-29.9,29.9-89.6,87.5c-8.5,8.5-21.3,8.5-27.7,0c-8.5-8.5-8.5-21.3,0-27.7l87.5-87.5
	c36.3-36.3,36.3-93.9,0-130.1s-96-36.3-132.3,0L313.6,194.1z M326.4,445.9c8.5-8.5,21.3-8.5,27.7,0c8.5,8.5,8.5,21.3,0,27.7
	l-87.5,87.5c-51.2,51.2-136.5,51.2-187.7,0s-51.2-136.5,0-187.7l87.5-87.5c8.5-8.5,21.3-8.5,27.7,0c8.5,8.5,8.5,21.3,0,27.7
	l-87.5,87.5c-36.3,36.3-36.3,96,0,132.3c36.3,36.3,96,36.3,132.3,0L326.4,445.9z M238.9,100.3c0,10.7-8.5,19.2-19.2,19.2
	s-19.2-8.5-19.2-19.2V19.2c0-10.7,8.5-19.2,19.2-19.2s19.2,8.5,19.2,19.2V100.3z M439.5,620.8c0,10.7-8.5,19.2-19.2,19.2
	c-10.7,0-19.2-8.5-19.2-19.2v-81.1c0-10.7,8.5-19.2,19.2-19.2c10.7,0,19.2,8.5,19.2,19.2V620.8z M153.6,125.9
	c8.5,8.5,8.5,21.3,0,27.7c-8.5,8.5-21.3,8.5-27.7,0L44.8,74.7c-8.5-8.5-8.5-21.3,0-27.7c8.5-8.5,21.3-8.5,27.7,0L153.6,125.9z
	 M595.2,565.3c8.5,8.5,8.5,21.3,0,27.7c-8.5,8.5-21.3,8.5-27.7,0L486.4,512c-8.5-8.5-8.5-21.3,0-27.7c8.5-8.5,21.3-8.5,27.7,0
	L595.2,565.3z M100.3,200.5c10.7,0,19.2,8.5,19.2,19.2c0,10.7-8.5,19.2-19.2,19.2H19.2C8.5,238.9,0,230.4,0,219.7
	c0-10.7,8.5-19.2,19.2-19.2H100.3z M620.8,401.1c10.7,0,19.2,8.5,19.2,19.2c0,10.7-8.5,19.2-19.2,19.2h-81.1
	c-10.7,0-19.2-8.5-19.2-19.2c0-10.7,8.5-19.2,19.2-19.2H620.8z"/>
</svg>
