<?xml version="1.0" encoding="utf-8"?>
<!-- Generator: Adobe Illustrator 25.3.1, SVG Export Plug-In . SVG Version: 6.00 Build 0)  -->
<svg version="1.1" id="图层_1" xmlns="http://www.w3.org/2000/svg" xmlns:xlink="http://www.w3.org/1999/xlink" x="0px" y="0px"
	 viewBox="0 0 640 640" style="enable-background:new 0 0 640 640;" xml:space="preserve">
<path d="M326.9,313.8c-7.4-7.4-7.4-20.5,0-27.9s20.5-7.4,27.9,0c52.1,52.1,52.1,135.9,0,188l-87.5,87.5c-52.1,52.1-135.9,52.1-188,0
	s-52.1-134-1.9-186.2l87.5-87.5c7.4-7.4,20.5-7.4,27.9,0s7.4,20.5,0,27.9l-87.5,87.5C70,438.5,70,498.1,107.2,533.4
	s94.9,35.4,130.3,0l87.5-87.5C364.1,408.7,364.1,349.1,326.9,313.8z M308.3,324.9c7.4,7.4,7.4,20.5,0,27.9s-20.5,7.4-27.9,0
	c-52.1-52.1-52.1-135.9,0-188l83.8-83.8c54-54,141.5-55.8,195.5-1.9c1.9,1.9,3.7,3.7,5.6,5.6c48.4,52.1,46.5,135.9-7.4,184.3
	l-91.2,83.8c-7.4,7.4-20.5,7.4-27.9-1.9c-7.4-7.4-7.4-20.5,1.9-27.9l91.2-83.8c37.2-33.5,39.1-91.2,3.7-128.4
	c-1.9-1.9-1.9-1.9-3.7-3.7C492.5,69.9,429.3,69.9,392,109l-83.8,83.8C272.9,230,272.9,289.6,308.3,324.9z"/>
</svg>
